<svg id="svg" version="1.1" xmlns="http://www.w3.org/2000/svg" xmlns:xlink="http://www.w3.org/1999/xlink" width="400" height="573.0941704035874" viewBox="0, 0, 400,573.0941704035874"><g id="svgg"><path id="path0" d="M187.200 2.040 C 187.200 2.241,183.843 2.400,179.600 2.400 C 174.800 2.400,172.000 2.547,172.000 2.800 C 172.000 3.020,171.370 3.200,170.600 3.200 C 169.830 3.200,169.200 3.380,169.200 3.600 C 169.200 3.820,168.647 4.000,167.971 4.000 C 166.746 4.000,165.600 4.759,165.600 5.571 C 165.600 5.807,165.190 6.000,164.688 6.000 C 164.187 6.000,163.517 6.360,163.200 6.800 C 162.883 7.240,162.303 7.600,161.912 7.600 C 161.419 7.600,161.200 7.908,161.200 8.600 C 161.200 9.150,160.970 9.600,160.688 9.600 C 160.407 9.600,159.917 9.960,159.600 10.400 C 159.283 10.840,158.703 11.200,158.312 11.200 C 157.862 11.200,157.600 11.500,157.600 12.017 C 157.600 12.779,157.377 13.162,156.100 14.585 C 155.825 14.892,155.600 15.516,155.600 15.971 C 155.600 16.427,155.420 16.800,155.200 16.800 C 154.980 16.800,154.800 17.160,154.800 17.600 C 154.800 18.040,154.620 18.400,154.400 18.400 C 154.180 18.400,154.000 19.191,154.000 20.157 C 154.000 21.350,153.807 21.988,153.400 22.145 C 153.049 22.279,152.800 22.879,152.800 23.587 C 152.800 24.254,152.620 24.800,152.400 24.800 C 152.178 24.800,152.000 25.859,152.000 27.176 C 152.000 28.483,152.180 29.664,152.400 29.800 C 152.620 29.936,152.800 30.942,152.800 32.036 C 152.800 33.435,152.978 34.093,153.400 34.255 C 153.863 34.433,154.000 35.205,154.000 37.643 C 154.000 39.481,154.167 40.800,154.400 40.800 C 154.620 40.800,154.800 41.689,154.800 42.776 C 154.800 43.863,154.980 44.864,155.200 45.000 C 155.420 45.136,155.600 46.396,155.600 47.800 C 155.600 49.204,155.780 50.464,156.000 50.600 C 156.220 50.736,156.406 51.692,156.413 52.724 C 156.420 53.756,156.690 54.949,157.013 55.376 C 157.358 55.833,157.600 57.029,157.600 58.276 C 157.600 59.444,157.780 60.400,158.000 60.400 C 158.220 60.400,158.400 61.390,158.400 62.600 C 158.400 63.810,158.580 64.800,158.800 64.800 C 159.022 64.800,159.200 65.859,159.200 67.176 C 159.200 68.483,159.380 69.664,159.600 69.800 C 159.820 69.936,160.000 71.104,160.000 72.395 C 160.000 73.949,160.203 74.946,160.600 75.343 C 161.028 75.771,161.200 76.813,161.200 78.971 C 161.200 80.724,161.369 82.000,161.600 82.000 C 161.820 82.000,162.000 82.889,162.000 83.976 C 162.000 85.063,162.180 86.064,162.400 86.200 C 162.620 86.336,162.800 87.427,162.800 88.624 C 162.800 89.821,162.980 90.800,163.200 90.800 C 163.426 90.800,163.600 91.938,163.600 93.413 C 163.600 95.366,163.751 96.083,164.200 96.255 C 164.646 96.426,164.800 97.136,164.800 99.019 C 164.800 100.413,164.980 101.664,165.200 101.800 C 165.420 101.936,165.600 103.106,165.600 104.400 C 165.600 105.694,165.780 106.864,166.000 107.000 C 166.220 107.136,166.400 108.407,166.400 109.824 C 166.400 111.275,166.575 112.400,166.800 112.400 C 167.020 112.400,167.200 113.390,167.200 114.600 C 167.200 116.289,167.339 116.800,167.800 116.800 C 168.272 116.800,168.400 117.356,168.400 119.400 C 168.400 120.867,168.574 122.000,168.800 122.000 C 169.025 122.000,169.200 123.125,169.200 124.576 C 169.200 125.993,169.380 127.264,169.600 127.400 C 169.820 127.536,170.000 129.077,170.000 130.824 C 170.000 132.675,170.167 134.000,170.400 134.000 C 170.620 134.000,170.800 134.726,170.800 135.613 C 170.800 136.677,171.004 137.303,171.400 137.455 C 171.852 137.629,172.000 138.358,172.000 140.419 C 172.000 141.923,172.180 143.264,172.400 143.400 C 172.620 143.536,172.800 144.267,172.800 145.024 C 172.800 145.781,172.980 146.400,173.200 146.400 C 173.440 146.400,173.600 148.000,173.600 150.400 C 173.600 152.800,173.760 154.400,174.000 154.400 C 174.220 154.400,174.400 155.289,174.400 156.376 C 174.400 157.463,174.580 158.464,174.800 158.600 C 175.020 158.736,175.200 159.724,175.200 160.795 C 175.200 161.993,175.431 162.974,175.800 163.343 C 176.137 163.680,176.400 164.657,176.400 165.571 C 176.400 166.467,176.580 167.200,176.800 167.200 C 177.020 167.200,177.200 167.830,177.200 168.600 C 177.200 169.370,177.380 170.000,177.600 170.000 C 177.820 170.000,178.000 170.283,178.000 170.629 C 178.000 171.347,178.934 172.400,179.571 172.400 C 179.807 172.400,180.000 172.555,180.000 172.745 C 180.000 173.390,182.105 175.200,182.855 175.200 C 183.265 175.200,183.600 175.380,183.600 175.600 C 183.600 175.820,184.095 176.006,184.700 176.013 C 185.305 176.020,186.104 176.257,186.476 176.539 C 187.445 177.276,216.054 177.238,216.300 176.500 C 216.392 176.225,216.993 176.000,217.637 176.000 C 218.392 176.000,219.253 175.574,220.063 174.800 C 220.754 174.140,221.472 173.600,221.659 173.600 C 221.847 173.600,222.000 173.370,222.000 173.088 C 222.000 172.807,222.360 172.317,222.800 172.000 C 223.240 171.683,223.600 171.103,223.600 170.712 C 223.600 170.320,223.870 170.000,224.200 170.000 C 224.617 170.000,224.800 169.580,224.800 168.624 C 224.800 167.867,224.980 167.136,225.200 167.000 C 225.420 166.864,225.600 166.234,225.600 165.600 C 225.600 164.966,225.780 164.336,226.000 164.200 C 226.220 164.064,226.400 163.074,226.400 162.000 C 226.400 160.926,226.580 159.936,226.800 159.800 C 227.020 159.664,227.200 158.505,227.200 157.225 C 227.200 155.756,227.400 154.732,227.742 154.448 C 228.097 154.154,228.311 152.933,228.364 150.899 C 228.409 149.195,228.615 147.629,228.822 147.420 C 229.030 147.211,229.200 146.356,229.200 145.520 C 229.200 144.684,229.380 144.000,229.600 144.000 C 229.829 144.000,230.000 142.800,230.000 141.200 C 230.000 139.600,230.171 138.400,230.400 138.400 C 230.620 138.400,230.800 137.674,230.800 136.787 C 230.800 135.723,231.004 135.097,231.400 134.945 C 231.858 134.769,232.000 134.019,232.000 131.781 C 232.000 130.167,232.180 128.736,232.400 128.600 C 232.620 128.464,232.800 127.204,232.800 125.800 C 232.800 124.396,232.980 123.136,233.200 123.000 C 233.420 122.864,233.600 121.683,233.600 120.376 C 233.600 119.059,233.778 118.000,234.000 118.000 C 234.229 118.000,234.400 116.800,234.400 115.200 C 234.400 112.978,234.524 112.400,235.000 112.400 C 235.461 112.400,235.600 111.889,235.600 110.200 C 235.600 108.990,235.764 108.000,235.964 108.000 C 236.333 108.000,236.646 105.618,237.041 99.800 C 237.160 98.040,237.425 96.429,237.629 96.220 C 237.833 96.011,238.000 95.088,238.000 94.169 C 238.000 93.217,238.243 92.296,238.565 92.029 C 238.877 91.771,239.230 90.533,239.350 89.280 C 239.773 84.880,240.081 82.997,240.439 82.620 C 240.637 82.411,240.800 80.757,240.800 78.944 C 240.800 77.131,240.980 75.536,241.200 75.400 C 241.420 75.264,241.600 74.283,241.600 73.219 C 241.600 71.983,241.791 71.212,242.130 71.082 C 242.470 70.952,242.693 70.041,242.753 68.539 C 242.804 67.253,243.016 66.029,243.223 65.820 C 243.430 65.611,243.600 64.767,243.600 63.944 C 243.600 63.121,243.780 62.336,244.000 62.200 C 244.220 62.064,244.400 60.793,244.400 59.376 C 244.400 57.925,244.575 56.800,244.800 56.800 C 245.026 56.800,245.200 55.667,245.200 54.200 C 245.200 52.733,245.374 51.600,245.600 51.600 C 245.833 51.600,246.000 50.267,246.000 48.400 C 246.000 45.822,246.117 45.200,246.600 45.200 C 247.061 45.200,247.200 44.689,247.200 43.000 C 247.200 41.790,247.380 40.800,247.600 40.800 C 247.829 40.800,248.000 39.600,248.000 38.000 C 248.000 36.400,248.171 35.200,248.400 35.200 C 248.620 35.200,248.800 34.210,248.800 33.000 C 248.800 31.790,248.980 30.800,249.200 30.800 C 249.435 30.800,249.600 29.400,249.600 27.400 C 249.600 25.400,249.435 24.000,249.200 24.000 C 248.980 24.000,248.800 23.370,248.800 22.600 C 248.800 21.830,248.620 21.200,248.400 21.200 C 248.180 21.200,247.994 20.525,247.987 19.700 C 247.974 18.155,247.259 16.800,246.456 16.800 C 246.205 16.800,246.000 16.350,246.000 15.800 C 246.000 15.250,245.820 14.800,245.600 14.800 C 245.380 14.800,245.200 14.440,245.200 14.000 C 245.200 13.560,245.020 13.200,244.800 13.200 C 244.580 13.200,244.400 12.750,244.400 12.200 C 244.400 11.650,244.265 11.200,244.100 11.200 C 243.677 11.199,241.600 9.371,241.600 9.000 C 241.600 8.528,239.466 6.801,238.882 6.800 C 238.597 6.800,237.914 6.350,237.364 5.800 C 236.814 5.250,236.102 4.800,235.782 4.800 C 235.462 4.800,235.200 4.620,235.200 4.400 C 235.200 4.180,234.660 4.000,234.000 4.000 C 233.340 4.000,232.800 3.820,232.800 3.600 C 232.800 3.380,232.350 3.200,231.800 3.200 C 231.250 3.200,230.800 3.020,230.800 2.800 C 230.800 2.546,227.667 2.400,222.200 2.400 C 216.733 2.400,213.600 2.254,213.600 2.000 C 213.600 1.780,213.330 1.600,213.000 1.600 C 212.670 1.600,212.397 1.825,212.394 2.100 C 212.390 2.445,212.297 2.464,212.094 2.161 C 211.712 1.590,209.088 1.590,208.706 2.161 C 208.494 2.478,208.411 2.476,208.406 2.155 C 208.398 1.567,205.202 1.567,205.194 2.155 C 205.189 2.476,205.106 2.478,204.894 2.161 C 204.732 1.919,203.970 1.721,203.200 1.721 C 202.430 1.721,201.668 1.919,201.506 2.161 C 201.294 2.478,201.211 2.476,201.206 2.155 C 201.198 1.567,198.002 1.567,197.994 2.155 C 197.989 2.476,197.906 2.478,197.694 2.161 C 197.312 1.590,194.688 1.590,194.306 2.161 C 194.094 2.478,194.011 2.476,194.006 2.155 C 193.998 1.567,190.802 1.567,190.794 2.155 C 190.790 2.466,190.699 2.471,190.494 2.173 C 190.136 1.652,187.200 1.534,187.200 2.040 M198.800 298.905 C 198.800 299.404,198.351 300.147,197.800 300.561 C 197.250 300.974,196.800 301.557,196.800 301.856 C 196.800 302.155,196.620 302.400,196.400 302.400 C 196.180 302.400,196.000 302.670,196.000 303.000 C 196.000 303.330,195.820 303.600,195.600 303.600 C 195.380 303.600,195.200 303.917,195.200 304.305 C 195.200 304.693,194.767 305.336,194.237 305.733 C 193.707 306.131,193.055 306.984,192.788 307.628 C 192.521 308.273,192.145 308.800,191.951 308.800 C 191.758 308.800,191.600 309.210,191.600 309.712 C 191.600 310.213,191.229 310.888,190.775 311.212 C 190.321 311.535,189.671 312.385,189.329 313.100 C 188.988 313.815,188.549 314.400,188.354 314.400 C 188.159 314.400,188.000 314.678,188.000 315.018 C 188.000 315.358,187.550 316.086,187.000 316.636 C 186.450 317.186,186.000 317.826,186.000 318.058 C 186.000 318.289,185.460 318.983,184.800 319.600 C 184.140 320.217,183.600 321.099,183.600 321.560 C 183.600 322.040,183.343 322.400,183.000 322.400 C 182.667 322.400,182.400 322.756,182.400 323.200 C 182.400 323.640,182.220 324.000,182.000 324.000 C 181.780 324.000,181.600 324.270,181.600 324.600 C 181.600 324.930,181.450 325.200,181.268 325.200 C 181.085 325.200,180.680 325.695,180.368 326.300 C 180.055 326.905,179.395 327.728,178.900 328.129 C 178.405 328.530,178.000 329.165,178.000 329.541 C 178.000 329.916,177.640 330.483,177.200 330.800 C 176.760 331.117,176.400 331.787,176.400 332.288 C 176.400 332.790,176.207 333.200,175.971 333.200 C 175.334 333.200,174.400 334.253,174.400 334.971 C 174.400 335.317,174.220 335.600,174.000 335.600 C 173.780 335.600,173.600 335.926,173.600 336.325 C 173.600 336.723,173.240 337.436,172.800 337.908 C 172.360 338.380,172.000 339.134,172.000 339.583 C 172.000 340.032,171.812 340.400,171.582 340.400 C 170.927 340.400,169.200 342.292,169.200 343.010 C 169.200 343.649,168.299 344.800,167.800 344.800 C 167.270 344.800,166.400 345.970,166.400 346.683 C 166.400 347.090,166.040 347.683,165.600 348.000 C 165.160 348.317,164.800 348.897,164.800 349.288 C 164.800 349.680,164.595 350.000,164.344 350.000 C 163.758 350.000,162.829 351.220,162.813 352.012 C 162.806 352.348,162.440 352.883,162.000 353.200 C 161.560 353.517,161.200 354.234,161.200 354.792 C 161.200 355.456,160.718 356.222,159.809 357.004 C 159.043 357.662,158.413 358.425,158.409 358.700 C 158.404 358.975,158.220 359.200,158.000 359.200 C 157.780 359.200,157.600 359.560,157.600 360.000 C 157.600 360.444,157.333 360.800,157.000 360.800 C 156.670 360.800,156.400 361.070,156.400 361.400 C 156.400 361.730,156.220 362.000,156.000 362.000 C 155.780 362.000,155.600 362.320,155.600 362.712 C 155.600 363.103,155.240 363.683,154.800 364.000 C 154.360 364.317,154.000 364.987,154.000 365.488 C 154.000 365.990,153.807 366.400,153.571 366.400 C 152.943 366.400,152.000 367.449,152.000 368.148 C 152.000 368.481,151.820 368.864,151.600 369.000 C 151.380 369.136,151.200 369.597,151.200 370.024 C 151.200 370.451,151.020 370.800,150.800 370.800 C 150.580 370.800,150.400 371.141,150.400 371.557 C 150.400 371.974,150.130 372.418,149.800 372.545 C 149.449 372.679,149.200 373.279,149.200 373.987 C 149.200 374.654,149.020 375.200,148.800 375.200 C 148.580 375.200,148.400 375.830,148.400 376.600 C 148.400 377.370,148.220 378.000,148.000 378.000 C 147.780 378.000,147.600 378.540,147.600 379.200 C 147.600 379.860,147.420 380.400,147.200 380.400 C 146.980 380.400,146.800 381.188,146.800 382.151 C 146.800 383.220,146.566 384.096,146.200 384.400 C 145.755 384.770,145.600 385.756,145.600 388.225 C 145.600 390.055,145.432 391.657,145.227 391.783 C 144.398 392.295,145.467 404.422,146.367 404.722 C 146.618 404.806,146.800 405.947,146.800 407.433 C 146.800 408.878,146.975 410.000,147.200 410.000 C 147.420 410.000,147.600 410.810,147.600 411.800 C 147.600 412.790,147.780 413.600,148.000 413.600 C 148.220 413.600,148.400 413.855,148.400 414.168 C 148.400 414.881,149.698 417.194,150.100 417.197 C 150.265 417.199,150.400 417.633,150.400 418.162 C 150.400 418.691,150.786 419.906,151.257 420.862 C 151.728 421.818,152.298 423.005,152.524 423.500 C 152.750 423.995,153.175 424.400,153.468 424.400 C 153.760 424.400,154.000 424.733,154.000 425.141 C 154.000 425.548,154.540 426.446,155.200 427.137 C 155.860 427.828,156.400 428.593,156.400 428.838 C 156.400 429.083,157.480 430.340,158.800 431.632 C 160.120 432.923,161.200 434.255,161.200 434.590 C 161.200 434.926,161.520 435.200,161.912 435.200 C 162.303 435.200,162.883 435.560,163.200 436.000 C 163.517 436.440,164.007 436.800,164.288 436.800 C 164.570 436.800,164.800 437.250,164.800 437.800 C 164.800 438.523,165.015 438.800,165.576 438.800 C 166.003 438.800,166.464 438.980,166.600 439.200 C 166.736 439.420,167.119 439.600,167.452 439.600 C 168.057 439.600,169.200 440.515,169.200 441.000 C 169.200 441.530,170.370 442.400,171.083 442.400 C 171.490 442.400,172.083 442.760,172.400 443.200 C 172.726 443.652,173.435 444.000,174.032 444.000 C 174.691 444.000,175.370 444.376,175.839 445.000 C 176.252 445.550,176.907 446.000,177.295 446.000 C 177.683 446.000,178.000 446.180,178.000 446.400 C 178.000 446.620,178.450 446.800,179.000 446.800 C 179.550 446.800,180.000 446.980,180.000 447.200 C 180.000 447.420,180.810 447.600,181.800 447.600 C 183.133 447.600,183.600 447.756,183.600 448.200 C 183.600 448.597,183.997 448.800,184.776 448.800 C 185.423 448.800,186.064 448.980,186.200 449.200 C 186.336 449.420,187.427 449.600,188.624 449.600 C 189.821 449.600,190.800 449.780,190.800 450.000 C 190.800 450.220,191.779 450.400,192.976 450.400 C 194.173 450.400,195.264 450.580,195.400 450.800 C 195.543 451.032,197.737 451.200,200.624 451.200 C 203.675 451.200,205.600 451.045,205.600 450.800 C 205.600 450.567,206.933 450.400,208.800 450.400 C 210.667 450.400,212.000 450.233,212.000 450.000 C 212.000 449.780,212.810 449.600,213.800 449.600 C 214.790 449.600,215.600 449.420,215.600 449.200 C 215.600 448.980,216.397 448.800,217.371 448.800 C 218.413 448.800,219.390 448.553,219.743 448.200 C 220.073 447.870,220.856 447.600,221.483 447.600 C 222.165 447.600,222.855 447.278,223.200 446.800 C 223.517 446.360,224.110 446.000,224.517 446.000 C 224.924 446.000,225.508 445.775,225.815 445.500 C 227.238 444.223,227.621 444.000,228.383 444.000 C 228.832 444.000,229.200 443.854,229.200 443.675 C 229.200 443.496,229.830 443.102,230.600 442.800 C 231.370 442.498,232.000 442.104,232.000 441.925 C 232.000 441.746,232.245 441.600,232.544 441.600 C 232.843 441.600,233.426 441.150,233.839 440.600 C 234.252 440.050,234.817 439.600,235.095 439.600 C 235.373 439.600,235.600 439.420,235.600 439.200 C 235.600 438.980,235.883 438.800,236.229 438.800 C 236.947 438.800,238.000 437.866,238.000 437.229 C 238.000 436.993,238.184 436.800,238.409 436.800 C 239.184 436.800,245.200 430.326,245.200 429.492 C 245.200 429.208,245.571 428.712,246.025 428.388 C 246.479 428.065,247.129 427.215,247.471 426.500 C 247.812 425.785,248.251 425.200,248.446 425.200 C 248.641 425.200,248.800 424.840,248.800 424.400 C 248.800 423.960,248.980 423.600,249.200 423.600 C 249.420 423.600,249.600 423.150,249.600 422.600 C 249.600 422.050,249.805 421.600,250.056 421.600 C 250.778 421.600,251.573 420.301,251.587 419.100 C 251.594 418.495,251.780 418.000,252.000 418.000 C 252.220 418.000,252.400 417.640,252.400 417.200 C 252.400 416.760,252.580 416.400,252.800 416.400 C 253.020 416.400,253.200 415.950,253.200 415.400 C 253.200 414.778,253.427 414.400,253.800 414.400 C 254.243 414.400,254.400 413.936,254.400 412.624 C 254.400 411.647,254.580 410.736,254.800 410.600 C 255.020 410.464,255.200 409.283,255.200 407.976 C 255.200 406.659,255.378 405.600,255.600 405.600 C 255.820 405.600,256.000 404.790,256.000 403.800 C 256.000 402.810,256.180 402.000,256.400 402.000 C 256.649 402.000,256.800 399.741,256.800 396.024 C 256.800 392.471,256.638 389.947,256.400 389.800 C 256.180 389.664,256.000 388.404,256.000 387.000 C 256.000 385.596,255.820 384.336,255.600 384.200 C 255.380 384.064,255.200 383.254,255.200 382.400 C 255.200 381.546,255.020 380.736,254.800 380.600 C 254.580 380.464,254.400 379.728,254.400 378.964 C 254.400 378.098,254.174 377.488,253.800 377.345 C 253.470 377.218,253.200 376.684,253.200 376.157 C 253.200 375.631,253.020 375.200,252.800 375.200 C 252.580 375.200,252.400 374.660,252.400 374.000 C 252.400 373.340,252.220 372.800,252.000 372.800 C 251.780 372.800,251.600 372.350,251.600 371.800 C 251.600 371.250,251.420 370.800,251.200 370.800 C 250.980 370.800,250.800 370.434,250.800 369.987 C 250.800 369.541,250.530 369.071,250.200 368.945 C 249.870 368.818,249.600 368.413,249.600 368.046 C 249.600 367.678,249.240 367.117,248.800 366.800 C 248.360 366.483,247.994 365.948,247.987 365.612 C 247.971 364.820,247.042 363.600,246.456 363.600 C 246.205 363.600,246.000 363.267,246.000 362.859 C 246.000 362.452,245.460 361.554,244.800 360.863 C 244.140 360.172,243.600 359.452,243.600 359.262 C 243.600 359.072,243.150 358.431,242.600 357.838 C 242.050 357.244,241.600 356.498,241.600 356.179 C 241.600 355.861,241.420 355.600,241.200 355.600 C 240.980 355.600,240.800 355.285,240.800 354.900 C 240.799 354.082,239.115 352.000,238.453 352.000 C 238.204 352.000,238.000 351.730,238.000 351.400 C 238.000 351.070,237.820 350.800,237.600 350.800 C 237.380 350.800,237.200 350.440,237.200 350.000 C 237.200 349.560,237.020 349.200,236.800 349.200 C 236.580 349.200,236.400 348.840,236.400 348.400 C 236.400 347.960,236.220 347.600,236.000 347.600 C 235.780 347.600,235.600 347.330,235.600 347.000 C 235.600 346.670,235.330 346.400,235.000 346.400 C 234.670 346.400,234.400 346.080,234.400 345.688 C 234.400 345.297,234.040 344.717,233.600 344.400 C 233.160 344.083,232.794 343.548,232.787 343.212 C 232.773 342.533,231.872 341.200,231.427 341.200 C 230.874 341.200,230.000 340.047,230.000 339.317 C 230.000 338.910,229.640 338.317,229.200 338.000 C 228.760 337.683,228.400 337.097,228.400 336.699 C 228.400 336.301,228.130 335.871,227.800 335.745 C 227.470 335.618,227.200 335.213,227.200 334.846 C 227.200 334.478,226.840 333.917,226.400 333.600 C 225.960 333.283,225.600 332.884,225.600 332.715 C 225.600 332.429,224.483 331.001,223.300 329.775 C 223.025 329.490,222.800 328.924,222.800 328.517 C 222.800 328.110,222.440 327.517,222.000 327.200 C 221.560 326.883,221.200 326.303,221.200 325.912 C 221.200 325.520,220.930 325.200,220.600 325.200 C 220.270 325.200,220.000 324.930,220.000 324.600 C 220.000 324.270,219.820 324.000,219.600 324.000 C 219.380 324.000,219.200 323.680,219.200 323.288 C 219.200 322.897,218.840 322.317,218.400 322.000 C 217.960 321.683,217.600 321.013,217.600 320.512 C 217.600 320.010,217.407 319.600,217.171 319.600 C 216.576 319.600,215.601 318.566,215.595 317.929 C 215.592 317.638,215.187 316.891,214.695 316.269 C 214.203 315.646,213.395 314.630,212.900 314.011 C 212.405 313.391,212.000 312.684,212.000 312.439 C 212.000 312.193,211.460 311.428,210.800 310.737 C 210.140 310.046,209.600 309.148,209.600 308.741 C 209.600 308.333,209.330 308.000,209.000 308.000 C 208.670 308.000,208.400 307.652,208.400 307.227 C 208.400 306.802,208.040 306.340,207.600 306.200 C 207.160 306.060,206.800 305.598,206.800 305.173 C 206.800 304.748,206.620 304.400,206.400 304.400 C 206.180 304.400,206.000 304.065,206.000 303.656 C 206.000 303.247,205.550 302.574,205.000 302.161 C 204.450 301.748,204.000 301.228,203.999 301.005 C 203.999 300.782,203.498 300.015,202.887 299.300 C 201.460 297.630,198.800 297.373,198.800 298.905 " stroke="none" fill="#fbc414" fill-rule="evenodd"></path><path id="path1" d="M198.082 177.096 C 199.558 177.173,202.078 177.173,203.682 177.097 C 205.287 177.021,204.080 176.958,201.000 176.958 C 197.920 176.957,196.607 177.019,198.082 177.096 M180.000 192.800 C 180.000 193.040,178.400 193.200,176.000 193.200 C 173.600 193.200,172.000 193.360,172.000 193.600 C 172.000 193.840,170.396 194.000,167.987 194.000 C 164.790 194.000,163.928 194.122,163.745 194.600 C 163.573 195.047,162.861 195.200,160.957 195.200 C 159.519 195.200,158.400 195.375,158.400 195.600 C 158.400 195.820,157.590 196.000,156.600 196.000 C 155.610 196.000,154.800 196.180,154.800 196.400 C 154.800 196.620,153.810 196.800,152.600 196.800 C 151.390 196.800,150.400 196.980,150.400 197.200 C 150.400 197.420,149.590 197.600,148.600 197.600 C 147.267 197.600,146.800 197.756,146.800 198.200 C 146.800 198.661,146.289 198.800,144.600 198.800 C 143.390 198.800,142.400 198.980,142.400 199.200 C 142.400 199.420,141.590 199.600,140.600 199.600 C 139.610 199.600,138.800 199.780,138.800 200.000 C 138.800 200.220,138.350 200.400,137.800 200.400 C 137.250 200.400,136.800 200.580,136.800 200.800 C 136.800 201.020,135.990 201.200,135.000 201.200 C 134.010 201.200,133.200 201.380,133.200 201.600 C 133.200 201.820,132.853 202.000,132.429 202.000 C 132.004 202.000,131.387 202.270,131.057 202.600 C 130.727 202.930,129.904 203.200,129.229 203.200 C 128.553 203.200,128.000 203.380,128.000 203.600 C 128.000 203.820,127.370 204.000,126.600 204.000 C 125.830 204.000,125.200 204.180,125.200 204.400 C 125.200 204.620,124.750 204.800,124.200 204.800 C 123.650 204.800,123.200 204.980,123.200 205.200 C 123.200 205.420,122.660 205.600,122.000 205.600 C 121.200 205.600,120.800 205.800,120.800 206.200 C 120.800 206.573,120.422 206.800,119.800 206.800 C 119.250 206.800,118.800 206.980,118.800 207.200 C 118.800 207.420,118.170 207.600,117.400 207.600 C 116.630 207.600,116.000 207.780,116.000 208.000 C 116.000 208.220,115.640 208.400,115.200 208.400 C 114.760 208.400,114.400 208.580,114.400 208.800 C 114.400 209.020,114.040 209.200,113.600 209.200 C 113.156 209.200,112.800 209.467,112.800 209.800 C 112.800 210.173,112.422 210.400,111.800 210.400 C 111.250 210.400,110.800 210.580,110.800 210.800 C 110.800 211.020,110.440 211.200,110.000 211.200 C 109.560 211.200,109.200 211.380,109.200 211.600 C 109.200 211.820,108.570 212.000,107.800 212.000 C 107.030 212.000,106.400 212.180,106.400 212.400 C 106.400 212.620,105.950 212.800,105.400 212.800 C 104.778 212.800,104.400 213.027,104.400 213.400 C 104.400 213.733,104.044 214.000,103.600 214.000 C 103.160 214.000,102.800 214.180,102.800 214.400 C 102.800 214.620,102.474 214.800,102.075 214.800 C 101.677 214.800,100.964 215.160,100.492 215.600 C 100.020 216.040,99.201 216.400,98.673 216.400 C 98.115 216.400,97.397 216.819,96.961 217.400 C 96.548 217.950,95.893 218.400,95.505 218.400 C 95.117 218.400,94.800 218.580,94.800 218.800 C 94.800 219.020,94.427 219.200,93.971 219.200 C 93.086 219.200,92.000 220.066,92.000 220.771 C 92.000 221.007,91.550 221.200,91.000 221.200 C 90.450 221.200,90.000 221.380,90.000 221.600 C 90.000 221.820,89.680 222.000,89.288 222.000 C 88.897 222.000,88.317 222.360,88.000 222.800 C 87.683 223.240,87.013 223.600,86.512 223.600 C 86.010 223.600,85.600 223.793,85.600 224.029 C 85.600 224.666,84.547 225.600,83.829 225.600 C 83.483 225.600,83.200 225.780,83.200 226.000 C 83.200 226.220,82.930 226.400,82.600 226.400 C 82.270 226.400,82.000 226.580,82.000 226.800 C 82.000 227.020,81.717 227.200,81.371 227.200 C 80.653 227.200,79.600 228.134,79.600 228.771 C 79.600 229.007,79.330 229.200,79.000 229.200 C 78.670 229.200,78.400 229.380,78.400 229.600 C 78.400 229.820,78.040 230.000,77.600 230.000 C 77.160 230.000,76.800 230.180,76.800 230.400 C 76.800 230.620,76.350 230.800,75.800 230.800 C 75.250 230.800,74.800 231.026,74.800 231.303 C 74.800 231.989,72.120 234.400,71.358 234.400 C 70.745 234.400,69.600 235.312,69.600 235.800 C 69.600 236.128,68.536 237.200,68.210 237.200 C 67.796 237.200,66.000 239.136,66.000 239.582 C 66.000 239.812,65.634 240.000,65.187 240.000 C 64.352 240.000,61.600 242.445,61.600 243.187 C 61.600 243.414,61.414 243.600,61.187 243.600 C 60.750 243.600,58.000 246.202,58.000 246.615 C 58.000 246.929,56.929 248.000,56.615 248.000 C 56.202 248.000,53.600 250.750,53.600 251.187 C 53.600 251.414,53.414 251.600,53.187 251.600 C 52.649 251.600,50.000 254.249,50.000 254.787 C 50.000 255.014,49.730 255.200,49.400 255.200 C 49.070 255.200,48.800 255.520,48.800 255.912 C 48.800 256.303,48.440 256.883,48.000 257.200 C 47.560 257.517,47.200 257.930,47.200 258.117 C 47.200 258.509,46.178 259.600,45.810 259.600 C 45.289 259.600,43.600 261.595,43.600 262.210 C 43.600 262.849,42.699 264.000,42.200 264.000 C 41.785 264.000,40.800 265.105,40.800 265.571 C 40.800 265.807,40.620 266.000,40.400 266.000 C 40.180 266.000,40.000 266.317,40.000 266.705 C 40.000 267.093,39.550 267.748,39.000 268.161 C 38.450 268.574,38.000 269.175,38.000 269.496 C 38.000 269.816,37.460 270.583,36.800 271.200 C 36.140 271.817,35.600 272.699,35.600 273.160 C 35.600 273.622,35.407 274.000,35.171 274.000 C 34.534 274.000,33.600 275.053,33.600 275.771 C 33.600 276.117,33.420 276.400,33.200 276.400 C 32.980 276.400,32.800 276.670,32.800 277.000 C 32.800 277.330,32.620 277.600,32.400 277.600 C 32.180 277.600,32.000 277.960,32.000 278.400 C 32.000 278.840,31.795 279.200,31.544 279.200 C 30.929 279.200,30.028 280.435,30.013 281.300 C 30.006 281.685,29.820 282.000,29.600 282.000 C 29.380 282.000,29.200 282.360,29.200 282.800 C 29.200 283.240,29.020 283.600,28.800 283.600 C 28.580 283.600,28.400 283.870,28.400 284.200 C 28.400 284.530,28.220 284.800,28.000 284.800 C 27.780 284.800,27.600 285.160,27.600 285.600 C 27.600 286.044,27.333 286.400,27.000 286.400 C 26.627 286.400,26.400 286.778,26.400 287.400 C 26.400 287.950,26.220 288.400,26.000 288.400 C 25.780 288.400,25.600 288.760,25.600 289.200 C 25.600 289.640,25.420 290.000,25.200 290.000 C 24.980 290.000,24.800 290.373,24.800 290.829 C 24.800 291.714,23.934 292.800,23.229 292.800 C 22.993 292.800,22.800 293.160,22.800 293.600 C 22.800 294.040,22.620 294.400,22.400 294.400 C 22.180 294.400,22.000 294.850,22.000 295.400 C 22.000 295.950,21.820 296.400,21.600 296.400 C 21.380 296.400,21.200 297.030,21.200 297.800 C 21.200 298.570,21.020 299.200,20.800 299.200 C 20.580 299.200,20.400 299.560,20.400 300.000 C 20.400 300.444,20.133 300.800,19.800 300.800 C 19.467 300.800,19.200 301.156,19.200 301.600 C 19.200 302.040,19.020 302.400,18.800 302.400 C 18.580 302.400,18.400 302.850,18.400 303.400 C 18.400 303.950,18.220 304.400,18.000 304.400 C 17.780 304.400,17.600 304.760,17.600 305.200 C 17.600 305.640,17.420 306.000,17.200 306.000 C 16.980 306.000,16.800 306.630,16.800 307.400 C 16.800 308.378,16.619 308.800,16.200 308.800 C 15.827 308.800,15.600 309.178,15.600 309.800 C 15.600 310.350,15.420 310.800,15.200 310.800 C 14.980 310.800,14.800 311.340,14.800 312.000 C 14.800 312.660,14.620 313.200,14.400 313.200 C 14.180 313.200,14.000 313.650,14.000 314.200 C 14.000 314.750,13.820 315.200,13.600 315.200 C 13.380 315.200,13.200 315.830,13.200 316.600 C 13.200 317.578,13.019 318.000,12.600 318.000 C 12.156 318.000,12.000 318.467,12.000 319.800 C 12.000 320.790,11.820 321.600,11.600 321.600 C 11.380 321.600,11.200 321.960,11.200 322.400 C 11.200 322.840,11.020 323.200,10.800 323.200 C 10.580 323.200,10.400 324.010,10.400 325.000 C 10.400 325.990,10.220 326.800,10.000 326.800 C 9.780 326.800,9.600 327.430,9.600 328.200 C 9.600 329.178,9.419 329.600,9.000 329.600 C 8.603 329.600,8.400 329.997,8.400 330.776 C 8.400 331.423,8.220 332.064,8.000 332.200 C 7.780 332.336,7.600 333.416,7.600 334.600 C 7.600 335.784,7.420 336.864,7.200 337.000 C 6.980 337.136,6.800 337.957,6.800 338.824 C 6.800 339.691,6.620 340.400,6.400 340.400 C 6.174 340.400,6.000 341.533,6.000 343.000 C 6.000 345.044,5.872 345.600,5.400 345.600 C 4.939 345.600,4.800 346.111,4.800 347.800 C 4.800 349.010,4.620 350.000,4.400 350.000 C 4.163 350.000,4.000 351.467,4.000 353.600 C 4.000 355.733,3.837 357.200,3.600 357.200 C 3.349 357.200,3.200 359.733,3.200 364.000 C 3.200 368.267,3.051 370.800,2.800 370.800 C 2.544 370.800,2.400 374.467,2.400 381.000 C 2.400 387.533,2.544 391.200,2.800 391.200 C 3.051 391.200,3.200 393.733,3.200 398.000 C 3.200 402.267,3.349 404.800,3.600 404.800 C 3.837 404.800,4.000 406.267,4.000 408.400 C 4.000 410.533,4.163 412.000,4.400 412.000 C 4.620 412.000,4.800 412.990,4.800 414.200 C 4.800 415.889,4.939 416.400,5.400 416.400 C 5.861 416.400,6.000 416.911,6.000 418.600 C 6.000 419.810,6.180 420.800,6.400 420.800 C 6.620 420.800,6.800 421.610,6.800 422.600 C 6.800 423.590,6.980 424.400,7.200 424.400 C 7.425 424.400,7.600 425.525,7.600 426.976 C 7.600 428.393,7.780 429.664,8.000 429.800 C 8.220 429.936,8.400 430.577,8.400 431.224 C 8.400 432.003,8.603 432.400,9.000 432.400 C 9.419 432.400,9.600 432.822,9.600 433.800 C 9.600 434.570,9.780 435.200,10.000 435.200 C 10.220 435.200,10.400 436.010,10.400 437.000 C 10.400 437.990,10.580 438.800,10.800 438.800 C 11.020 438.800,11.200 439.160,11.200 439.600 C 11.200 440.040,11.380 440.400,11.600 440.400 C 11.820 440.400,12.000 441.210,12.000 442.200 C 12.000 443.533,12.156 444.000,12.600 444.000 C 13.019 444.000,13.200 444.422,13.200 445.400 C 13.200 446.170,13.380 446.800,13.600 446.800 C 13.820 446.800,14.000 447.250,14.000 447.800 C 14.000 448.350,14.180 448.800,14.400 448.800 C 14.620 448.800,14.800 449.340,14.800 450.000 C 14.800 450.660,14.980 451.200,15.200 451.200 C 15.420 451.200,15.600 451.650,15.600 452.200 C 15.600 452.822,15.827 453.200,16.200 453.200 C 16.619 453.200,16.800 453.622,16.800 454.600 C 16.800 455.370,16.980 456.000,17.200 456.000 C 17.420 456.000,17.600 456.360,17.600 456.800 C 17.600 457.240,17.780 457.600,18.000 457.600 C 18.220 457.600,18.400 458.050,18.400 458.600 C 18.400 459.150,18.580 459.600,18.800 459.600 C 19.020 459.600,19.200 459.952,19.200 460.382 C 19.200 460.812,19.650 461.614,20.200 462.164 C 20.829 462.792,21.200 463.616,21.200 464.382 C 21.200 465.052,21.380 465.600,21.600 465.600 C 21.820 465.600,22.000 466.050,22.000 466.600 C 22.000 467.150,22.180 467.600,22.400 467.600 C 22.620 467.600,22.800 467.960,22.800 468.400 C 22.800 468.844,23.067 469.200,23.400 469.200 C 23.758 469.200,24.000 469.568,24.000 470.112 C 24.000 470.613,24.360 471.283,24.800 471.600 C 25.240 471.917,25.600 472.497,25.600 472.888 C 25.600 473.280,25.780 473.600,26.000 473.600 C 26.220 473.600,26.400 474.050,26.400 474.600 C 26.400 475.222,26.627 475.600,27.000 475.600 C 27.333 475.600,27.600 475.956,27.600 476.400 C 27.600 476.840,27.780 477.200,28.000 477.200 C 28.220 477.200,28.400 477.560,28.400 478.000 C 28.400 478.440,28.580 478.800,28.800 478.800 C 29.020 478.800,29.200 479.070,29.200 479.400 C 29.200 479.730,29.380 480.000,29.600 480.000 C 29.820 480.000,30.000 480.450,30.000 481.000 C 30.000 481.550,30.180 482.000,30.400 482.000 C 30.620 482.000,30.800 482.245,30.800 482.544 C 30.800 482.843,31.250 483.426,31.800 483.839 C 32.350 484.252,32.800 484.817,32.800 485.095 C 32.800 485.373,32.980 485.600,33.200 485.600 C 33.420 485.600,33.600 485.960,33.600 486.400 C 33.600 486.840,33.780 487.200,34.000 487.200 C 34.220 487.200,34.400 487.560,34.400 488.000 C 34.400 488.444,34.667 488.800,35.000 488.800 C 35.330 488.800,35.600 489.030,35.600 489.312 C 35.600 489.593,35.960 490.083,36.400 490.400 C 36.840 490.717,37.200 491.297,37.200 491.688 C 37.200 492.080,37.380 492.400,37.600 492.400 C 37.820 492.400,38.000 492.670,38.000 493.000 C 38.000 493.330,38.193 493.600,38.429 493.600 C 39.066 493.600,40.000 494.653,40.000 495.371 C 40.000 495.717,40.180 496.000,40.400 496.000 C 40.620 496.000,40.800 496.193,40.800 496.429 C 40.800 496.895,41.785 498.000,42.200 498.000 C 42.699 498.000,43.600 499.151,43.600 499.790 C 43.600 500.405,45.289 502.400,45.810 502.400 C 46.217 502.400,47.200 503.511,47.200 503.971 C 47.200 504.207,47.380 504.400,47.600 504.400 C 47.820 504.400,48.000 504.683,48.000 505.029 C 48.000 505.747,48.934 506.800,49.571 506.800 C 49.807 506.800,50.000 506.986,50.000 507.213 C 50.000 507.650,52.602 510.400,53.015 510.400 C 53.332 510.400,54.400 511.472,54.400 511.790 C 54.400 512.111,56.289 514.000,56.610 514.000 C 56.928 514.000,58.000 515.068,58.000 515.385 C 58.000 515.798,60.750 518.400,61.187 518.400 C 61.414 518.400,61.600 518.586,61.600 518.813 C 61.600 519.555,64.352 522.000,65.187 522.000 C 65.788 522.000,66.000 522.261,66.000 523.000 C 66.000 523.733,66.213 524.000,66.800 524.000 C 67.240 524.000,67.600 524.180,67.600 524.400 C 67.600 524.620,67.793 524.800,68.029 524.800 C 68.495 524.800,69.600 525.785,69.600 526.200 C 69.600 526.612,70.507 527.354,71.800 527.998 C 72.460 528.327,73.553 529.182,74.228 529.898 C 74.904 530.614,75.719 531.200,76.040 531.200 C 76.361 531.200,76.883 531.560,77.200 532.000 C 77.517 532.440,78.187 532.800,78.688 532.800 C 79.190 532.800,79.600 532.993,79.600 533.229 C 79.600 533.866,80.653 534.800,81.371 534.800 C 81.717 534.800,82.000 534.980,82.000 535.200 C 82.000 535.420,82.230 535.600,82.512 535.600 C 82.793 535.600,83.283 535.960,83.600 536.400 C 83.917 536.840,84.497 537.200,84.888 537.200 C 85.280 537.200,85.600 537.470,85.600 537.800 C 85.600 538.158,85.968 538.400,86.512 538.400 C 87.013 538.400,87.683 538.760,88.000 539.200 C 88.317 539.640,88.897 540.000,89.288 540.000 C 89.680 540.000,90.000 540.180,90.000 540.400 C 90.000 540.620,90.270 540.800,90.600 540.800 C 90.930 540.800,91.200 541.070,91.200 541.400 C 91.200 541.733,91.556 542.000,92.000 542.000 C 92.440 542.000,92.800 542.180,92.800 542.400 C 92.800 542.620,93.250 542.800,93.800 542.800 C 94.350 542.800,94.800 542.980,94.800 543.200 C 94.800 543.420,95.117 543.600,95.505 543.600 C 95.893 543.600,96.548 544.050,96.961 544.600 C 97.374 545.150,98.047 545.600,98.456 545.600 C 98.865 545.600,99.200 545.780,99.200 546.000 C 99.200 546.220,99.560 546.400,100.000 546.400 C 100.440 546.400,100.800 546.580,100.800 546.800 C 100.800 547.020,101.250 547.200,101.800 547.200 C 102.350 547.200,102.800 547.380,102.800 547.600 C 102.800 547.820,103.160 548.000,103.600 548.000 C 104.044 548.000,104.400 548.267,104.400 548.600 C 104.400 548.973,104.778 549.200,105.400 549.200 C 105.950 549.200,106.400 549.380,106.400 549.600 C 106.400 549.820,106.760 550.000,107.200 550.000 C 107.640 550.000,108.000 550.180,108.000 550.400 C 108.000 550.620,108.450 550.800,109.000 550.800 C 109.550 550.800,110.000 550.980,110.000 551.200 C 110.000 551.420,110.630 551.600,111.400 551.600 C 112.378 551.600,112.800 551.781,112.800 552.200 C 112.800 552.533,113.156 552.800,113.600 552.800 C 114.040 552.800,114.400 552.980,114.400 553.200 C 114.400 553.420,114.760 553.600,115.200 553.600 C 115.640 553.600,116.000 553.780,116.000 554.000 C 116.000 554.220,116.630 554.400,117.400 554.400 C 118.170 554.400,118.800 554.580,118.800 554.800 C 118.800 555.020,119.250 555.200,119.800 555.200 C 120.422 555.200,120.800 555.427,120.800 555.800 C 120.800 556.200,121.200 556.400,122.000 556.400 C 122.660 556.400,123.200 556.580,123.200 556.800 C 123.200 557.020,123.650 557.200,124.200 557.200 C 124.750 557.200,125.200 557.380,125.200 557.600 C 125.200 557.820,125.830 558.000,126.600 558.000 C 127.370 558.000,128.000 558.180,128.000 558.400 C 128.000 558.620,128.810 558.800,129.800 558.800 C 131.133 558.800,131.600 558.956,131.600 559.400 C 131.600 559.733,131.956 560.000,132.400 560.000 C 132.840 560.000,133.200 560.180,133.200 560.400 C 133.200 560.620,134.010 560.800,135.000 560.800 C 135.990 560.800,136.800 560.980,136.800 561.200 C 136.800 561.420,137.250 561.600,137.800 561.600 C 138.350 561.600,138.800 561.780,138.800 562.000 C 138.800 562.220,139.610 562.400,140.600 562.400 C 141.590 562.400,142.400 562.580,142.400 562.800 C 142.400 563.020,143.390 563.200,144.600 563.200 C 146.289 563.200,146.800 563.339,146.800 563.800 C 146.800 564.244,147.267 564.400,148.600 564.400 C 149.590 564.400,150.400 564.580,150.400 564.800 C 150.400 565.020,151.390 565.200,152.600 565.200 C 153.810 565.200,154.800 565.380,154.800 565.600 C 154.800 565.820,155.790 566.000,157.000 566.000 C 158.210 566.000,159.200 566.180,159.200 566.400 C 159.200 566.629,160.400 566.800,162.000 566.800 C 164.222 566.800,164.800 566.924,164.800 567.400 C 164.800 567.889,165.467 568.000,168.400 568.000 C 170.533 568.000,172.000 568.163,172.000 568.400 C 172.000 568.642,173.733 568.800,176.400 568.800 C 179.067 568.800,180.800 568.958,180.800 569.200 C 180.800 569.461,187.800 569.600,201.000 569.600 C 214.200 569.600,221.200 569.461,221.200 569.200 C 221.200 568.962,222.725 568.800,224.976 568.800 C 227.063 568.800,228.863 568.621,229.000 568.400 C 229.138 568.177,231.004 568.000,233.224 568.000 C 236.492 568.000,237.200 567.893,237.200 567.400 C 237.200 566.924,237.778 566.800,240.000 566.800 C 241.600 566.800,242.800 566.629,242.800 566.400 C 242.800 566.180,243.509 566.000,244.376 566.000 C 245.243 566.000,246.064 565.820,246.200 565.600 C 246.336 565.380,247.427 565.200,248.624 565.200 C 249.821 565.200,250.800 565.020,250.800 564.800 C 250.800 564.580,251.610 564.400,252.600 564.400 C 253.933 564.400,254.400 564.244,254.400 563.800 C 254.400 563.339,254.911 563.200,256.600 563.200 C 257.810 563.200,258.800 563.020,258.800 562.800 C 258.800 562.580,259.610 562.400,260.600 562.400 C 261.590 562.400,262.400 562.220,262.400 562.000 C 262.400 561.780,262.929 561.600,263.576 561.600 C 264.223 561.600,264.864 561.420,265.000 561.200 C 265.136 560.980,265.777 560.800,266.424 560.800 C 267.071 560.800,267.600 560.620,267.600 560.400 C 267.600 560.180,268.146 560.000,268.813 560.000 C 269.521 560.000,270.121 559.751,270.255 559.400 C 270.397 559.030,271.005 558.800,271.843 558.800 C 272.589 558.800,273.200 558.620,273.200 558.400 C 273.200 558.180,273.740 558.000,274.400 558.000 C 275.060 558.000,275.600 557.820,275.600 557.600 C 275.600 557.380,276.050 557.200,276.600 557.200 C 277.150 557.200,277.600 557.020,277.600 556.800 C 277.600 556.580,278.230 556.400,279.000 556.400 C 279.978 556.400,280.400 556.219,280.400 555.800 C 280.400 555.467,280.756 555.200,281.200 555.200 C 281.640 555.200,282.000 555.020,282.000 554.800 C 282.000 554.580,282.632 554.400,283.405 554.400 C 284.178 554.400,285.213 554.192,285.705 553.938 C 287.582 552.967,288.007 552.800,288.595 552.800 C 288.928 552.800,289.200 552.530,289.200 552.200 C 289.200 551.827,289.578 551.600,290.200 551.600 C 290.750 551.600,291.200 551.420,291.200 551.200 C 291.200 550.980,291.740 550.800,292.400 550.800 C 293.060 550.800,293.600 550.620,293.600 550.400 C 293.600 550.180,293.915 549.994,294.300 549.987 C 295.165 549.972,296.400 549.071,296.400 548.456 C 296.400 548.205,296.850 548.000,297.400 548.000 C 297.950 548.000,298.400 547.820,298.400 547.600 C 298.400 547.380,298.940 547.200,299.600 547.200 C 300.260 547.200,300.800 547.020,300.800 546.800 C 300.800 546.580,301.173 546.400,301.629 546.400 C 302.514 546.400,303.600 545.534,303.600 544.829 C 303.600 544.593,303.960 544.400,304.400 544.400 C 304.840 544.400,305.200 544.220,305.200 544.000 C 305.200 543.780,305.549 543.600,305.976 543.600 C 306.403 543.600,306.864 543.420,307.000 543.200 C 307.136 542.980,307.597 542.800,308.024 542.800 C 308.451 542.800,308.800 542.620,308.800 542.400 C 308.800 542.180,309.070 542.000,309.400 542.000 C 309.730 542.000,310.000 541.730,310.000 541.400 C 310.000 541.067,310.356 540.800,310.800 540.800 C 311.240 540.800,311.600 540.620,311.600 540.400 C 311.600 540.180,312.010 540.000,312.512 540.000 C 313.013 540.000,313.683 539.640,314.000 539.200 C 314.317 538.760,314.897 538.400,315.288 538.400 C 315.680 538.400,316.000 538.130,316.000 537.800 C 316.000 537.470,316.270 537.200,316.600 537.200 C 316.930 537.200,317.200 537.020,317.200 536.800 C 317.200 536.580,317.520 536.400,317.912 536.400 C 318.303 536.400,318.883 536.040,319.200 535.600 C 319.517 535.160,320.052 534.794,320.388 534.787 C 321.180 534.771,322.400 533.842,322.400 533.256 C 322.400 533.005,322.766 532.800,323.213 532.800 C 324.048 532.800,326.800 530.355,326.800 529.613 C 326.800 529.386,327.184 529.200,327.653 529.200 C 328.122 529.200,328.797 528.873,329.153 528.472 C 329.509 528.072,330.115 527.628,330.500 527.485 C 330.885 527.342,331.200 526.859,331.200 526.413 C 331.200 525.854,331.462 525.600,332.040 525.600 C 332.501 525.600,333.383 525.060,334.000 524.400 C 334.617 523.740,335.319 523.200,335.560 523.200 C 335.802 523.200,336.000 523.007,336.000 522.771 C 336.000 522.134,337.053 521.200,337.771 521.200 C 338.117 521.200,338.400 521.020,338.400 520.800 C 338.400 520.580,338.593 520.400,338.829 520.400 C 339.289 520.400,340.400 519.417,340.400 519.010 C 340.400 518.689,342.289 516.800,342.610 516.800 C 342.931 516.800,344.000 515.731,344.000 515.410 C 344.000 515.089,345.889 513.200,346.210 513.200 C 346.531 513.200,347.600 512.131,347.600 511.810 C 347.600 511.495,349.486 509.600,349.800 509.600 C 350.114 509.600,352.000 507.705,352.000 507.390 C 352.000 506.983,353.111 506.000,353.571 506.000 C 353.807 506.000,354.000 505.640,354.000 505.200 C 354.000 504.760,354.180 504.400,354.400 504.400 C 354.620 504.400,354.800 504.214,354.800 503.987 C 354.800 503.449,357.449 500.800,357.987 500.800 C 358.214 500.800,358.400 500.422,358.400 499.960 C 358.400 499.499,358.940 498.617,359.600 498.000 C 360.260 497.383,360.800 496.681,360.800 496.440 C 360.800 496.198,361.055 496.000,361.366 496.000 C 361.678 496.000,362.172 495.460,362.464 494.800 C 362.756 494.140,363.131 493.600,363.298 493.600 C 363.464 493.600,363.600 493.330,363.600 493.000 C 363.600 492.670,363.780 492.400,364.000 492.400 C 364.220 492.400,364.400 492.040,364.400 491.600 C 364.400 491.160,364.593 490.800,364.829 490.800 C 365.382 490.800,366.400 489.782,366.400 489.229 C 366.400 488.993,366.580 488.800,366.800 488.800 C 367.020 488.800,367.200 488.440,367.200 488.000 C 367.200 487.560,367.380 487.200,367.600 487.200 C 367.820 487.200,368.000 486.840,368.000 486.400 C 368.000 485.956,368.267 485.600,368.600 485.600 C 368.930 485.600,369.200 485.370,369.200 485.088 C 369.200 484.807,369.560 484.317,370.000 484.000 C 370.440 483.683,370.800 483.103,370.800 482.712 C 370.800 482.320,370.980 482.000,371.200 482.000 C 371.420 482.000,371.600 481.550,371.600 481.000 C 371.600 480.450,371.793 480.000,372.029 480.000 C 372.734 480.000,373.600 478.914,373.600 478.029 C 373.600 477.573,373.780 477.200,374.000 477.200 C 374.220 477.200,374.400 476.883,374.400 476.495 C 374.400 476.107,374.850 475.452,375.400 475.039 C 376.024 474.570,376.400 473.891,376.400 473.232 C 376.400 472.635,376.748 471.926,377.200 471.600 C 377.640 471.283,378.000 470.613,378.000 470.112 C 378.000 469.610,378.180 469.200,378.400 469.200 C 378.620 469.200,378.800 468.840,378.800 468.400 C 378.800 467.956,379.067 467.600,379.400 467.600 C 379.773 467.600,380.000 467.222,380.000 466.600 C 380.000 466.050,380.180 465.600,380.400 465.600 C 380.620 465.600,380.800 465.251,380.800 464.824 C 380.800 464.397,380.980 463.936,381.200 463.800 C 381.420 463.664,381.600 463.203,381.600 462.776 C 381.600 462.349,381.780 462.000,382.000 462.000 C 382.220 462.000,382.400 461.659,382.400 461.243 C 382.400 460.826,382.670 460.382,383.000 460.255 C 383.330 460.129,383.600 459.659,383.600 459.213 C 383.600 458.766,383.780 458.400,384.000 458.400 C 384.220 458.400,384.400 458.051,384.400 457.624 C 384.400 457.197,384.580 456.736,384.800 456.600 C 385.020 456.464,385.200 455.643,385.200 454.776 C 385.200 453.909,385.380 453.200,385.600 453.200 C 385.820 453.200,386.000 452.750,386.000 452.200 C 386.000 451.650,386.180 451.200,386.400 451.200 C 386.620 451.200,386.800 450.840,386.800 450.400 C 386.800 449.956,387.067 449.600,387.400 449.600 C 387.769 449.600,388.000 449.225,388.000 448.624 C 388.000 448.087,388.180 447.536,388.400 447.400 C 388.620 447.264,388.800 446.713,388.800 446.176 C 388.800 445.639,388.980 445.200,389.200 445.200 C 389.420 445.200,389.600 444.390,389.600 443.400 C 389.600 442.410,389.780 441.600,390.000 441.600 C 390.220 441.600,390.400 440.970,390.400 440.200 C 390.400 439.222,390.581 438.800,391.000 438.800 C 391.419 438.800,391.600 438.378,391.600 437.400 C 391.600 436.630,391.780 436.000,392.000 436.000 C 392.220 436.000,392.400 435.460,392.400 434.800 C 392.400 434.140,392.580 433.600,392.800 433.600 C 393.020 433.600,393.200 432.790,393.200 431.800 C 393.200 430.810,393.380 430.000,393.600 430.000 C 393.822 430.000,394.000 428.933,394.000 427.600 C 394.000 425.733,394.133 425.200,394.600 425.200 C 395.044 425.200,395.200 424.733,395.200 423.400 C 395.200 422.410,395.380 421.600,395.600 421.600 C 395.820 421.600,396.000 420.610,396.000 419.400 C 396.000 418.190,396.180 417.200,396.400 417.200 C 396.620 417.200,396.800 416.210,396.800 415.000 C 396.800 413.790,396.980 412.800,397.200 412.800 C 397.433 412.800,397.600 411.481,397.600 409.643 C 397.600 407.205,397.737 406.433,398.200 406.255 C 398.697 406.065,398.800 404.988,398.800 400.013 C 398.800 396.168,398.948 394.000,399.211 394.000 C 399.487 394.000,399.556 389.720,399.423 380.900 C 399.122 361.066,398.872 356.002,398.179 355.737 C 397.741 355.569,397.600 354.744,397.600 352.357 C 397.600 350.519,397.433 349.200,397.200 349.200 C 396.980 349.200,396.800 348.210,396.800 347.000 C 396.800 345.790,396.620 344.800,396.400 344.800 C 396.180 344.800,396.000 343.810,396.000 342.600 C 396.000 341.390,395.820 340.400,395.600 340.400 C 395.380 340.400,395.200 339.590,395.200 338.600 C 395.200 337.267,395.044 336.800,394.600 336.800 C 394.133 336.800,394.000 336.267,394.000 334.400 C 394.000 333.067,393.822 332.000,393.600 332.000 C 393.380 332.000,393.200 331.190,393.200 330.200 C 393.200 329.210,393.020 328.400,392.800 328.400 C 392.580 328.400,392.400 327.860,392.400 327.200 C 392.400 326.540,392.220 326.000,392.000 326.000 C 391.780 326.000,391.600 325.370,391.600 324.600 C 391.600 323.622,391.419 323.200,391.000 323.200 C 390.581 323.200,390.400 322.778,390.400 321.800 C 390.400 321.030,390.220 320.400,390.000 320.400 C 389.780 320.400,389.600 319.590,389.600 318.600 C 389.600 317.610,389.420 316.800,389.200 316.800 C 388.980 316.800,388.800 316.440,388.800 316.000 C 388.800 315.560,388.620 315.200,388.400 315.200 C 388.180 315.200,388.000 314.570,388.000 313.800 C 388.000 312.822,387.819 312.400,387.400 312.400 C 387.067 312.400,386.800 312.044,386.800 311.600 C 386.800 311.160,386.620 310.800,386.400 310.800 C 386.180 310.800,386.000 310.350,386.000 309.800 C 386.000 309.250,385.820 308.800,385.600 308.800 C 385.380 308.800,385.200 308.170,385.200 307.400 C 385.200 306.630,385.020 306.000,384.800 306.000 C 384.580 306.000,384.400 305.651,384.400 305.224 C 384.400 304.797,384.220 304.336,384.000 304.200 C 383.780 304.064,383.600 303.508,383.600 302.964 C 383.600 302.420,383.330 301.871,383.000 301.745 C 382.670 301.618,382.400 301.174,382.400 300.757 C 382.400 300.341,382.220 300.000,382.000 300.000 C 381.780 300.000,381.600 299.550,381.600 299.000 C 381.600 298.450,381.420 298.000,381.200 298.000 C 380.980 298.000,380.800 297.640,380.800 297.200 C 380.800 296.760,380.620 296.400,380.400 296.400 C 380.180 296.400,380.000 295.950,380.000 295.400 C 380.000 294.778,379.773 294.400,379.400 294.400 C 379.067 294.400,378.800 294.044,378.800 293.600 C 378.800 293.160,378.620 292.800,378.400 292.800 C 378.180 292.800,378.000 292.440,378.000 292.000 C 378.000 291.560,377.820 291.200,377.600 291.200 C 377.380 291.200,377.200 290.930,377.200 290.600 C 377.200 290.270,377.020 290.000,376.800 290.000 C 376.580 290.000,376.400 289.640,376.400 289.200 C 376.400 288.756,376.133 288.400,375.800 288.400 C 375.427 288.400,375.200 288.022,375.200 287.400 C 375.200 286.850,375.020 286.400,374.800 286.400 C 374.580 286.400,374.400 286.040,374.400 285.600 C 374.400 285.160,374.220 284.800,374.000 284.800 C 373.780 284.800,373.600 284.530,373.600 284.200 C 373.600 283.870,373.420 283.600,373.200 283.600 C 372.980 283.600,372.800 283.240,372.800 282.800 C 372.800 282.356,372.533 282.000,372.200 282.000 C 371.842 282.000,371.600 281.632,371.600 281.088 C 371.600 280.587,371.240 279.917,370.800 279.600 C 370.360 279.283,370.000 278.703,370.000 278.312 C 370.000 277.920,369.820 277.600,369.600 277.600 C 369.380 277.600,369.200 277.330,369.200 277.000 C 369.200 276.670,368.930 276.400,368.600 276.400 C 368.267 276.400,368.000 276.044,368.000 275.600 C 368.000 275.160,367.820 274.800,367.600 274.800 C 367.380 274.800,367.200 274.440,367.200 274.000 C 367.200 273.560,367.020 273.200,366.800 273.200 C 366.580 273.200,366.400 273.007,366.400 272.771 C 366.400 272.305,365.415 271.200,365.000 271.200 C 364.501 271.200,363.600 270.049,363.600 269.412 C 363.600 269.057,363.240 268.380,362.800 267.908 C 362.360 267.436,362.000 266.813,362.000 266.525 C 362.000 266.236,361.730 266.000,361.400 266.000 C 361.070 266.000,360.800 265.802,360.800 265.560 C 360.800 265.319,360.260 264.617,359.600 264.000 C 358.940 263.383,358.400 262.501,358.400 262.040 C 358.400 261.578,358.214 261.200,357.987 261.200 C 357.550 261.200,354.800 258.598,354.800 258.185 C 354.800 257.782,353.686 256.800,353.229 256.800 C 352.993 256.800,352.800 256.440,352.800 256.000 C 352.800 255.560,352.620 255.200,352.400 255.200 C 352.180 255.200,352.000 255.012,352.000 254.782 C 352.000 254.336,350.204 252.400,349.790 252.400 C 349.469 252.400,348.400 251.331,348.400 251.010 C 348.400 250.695,346.514 248.800,346.200 248.800 C 345.886 248.800,344.000 246.905,344.000 246.590 C 344.000 246.269,342.931 245.200,342.610 245.200 C 342.289 245.200,340.400 243.311,340.400 242.990 C 340.400 242.583,339.289 241.600,338.829 241.600 C 338.593 241.600,338.400 241.420,338.400 241.200 C 338.400 240.980,338.117 240.800,337.771 240.800 C 337.053 240.800,336.000 239.866,336.000 239.229 C 336.000 238.993,335.812 238.800,335.583 238.800 C 335.353 238.800,334.183 237.810,332.983 236.600 C 331.782 235.390,330.570 234.400,330.288 234.400 C 330.007 234.400,329.517 234.040,329.200 233.600 C 328.883 233.160,328.213 232.800,327.712 232.800 C 327.210 232.800,326.800 232.612,326.800 232.382 C 326.800 231.727,324.908 230.000,324.190 230.000 C 323.551 230.000,322.400 229.099,322.400 228.600 C 322.400 228.070,321.230 227.200,320.517 227.200 C 320.110 227.200,319.517 226.840,319.200 226.400 C 318.883 225.960,318.303 225.600,317.912 225.600 C 317.520 225.600,317.200 225.420,317.200 225.200 C 317.200 224.980,316.930 224.800,316.600 224.800 C 316.270 224.800,316.000 224.530,316.000 224.200 C 316.000 223.870,315.680 223.600,315.288 223.600 C 314.897 223.600,314.317 223.240,314.000 222.800 C 313.683 222.360,313.013 222.000,312.512 222.000 C 312.010 222.000,311.600 221.820,311.600 221.600 C 311.600 221.380,311.240 221.200,310.800 221.200 C 310.356 221.200,310.000 220.933,310.000 220.600 C 310.000 220.242,309.632 220.000,309.088 220.000 C 308.587 220.000,307.917 219.640,307.600 219.200 C 307.283 218.760,306.613 218.400,306.112 218.400 C 305.610 218.400,305.200 218.220,305.200 218.000 C 305.200 217.780,304.840 217.600,304.400 217.600 C 303.956 217.600,303.600 217.333,303.600 217.000 C 303.600 216.627,303.222 216.400,302.600 216.400 C 302.050 216.400,301.600 216.220,301.600 216.000 C 301.600 215.780,301.240 215.600,300.800 215.600 C 300.360 215.600,300.000 215.420,300.000 215.200 C 300.000 214.980,299.640 214.800,299.200 214.800 C 298.760 214.800,298.400 214.620,298.400 214.400 C 298.400 214.180,298.207 214.000,297.971 214.000 C 297.736 214.000,297.292 213.775,296.985 213.500 C 295.522 212.188,295.150 212.000,294.017 212.000 C 293.348 212.000,292.800 211.820,292.800 211.600 C 292.800 211.380,292.440 211.200,292.000 211.200 C 291.560 211.200,291.200 211.020,291.200 210.800 C 291.200 210.580,290.750 210.400,290.200 210.400 C 289.578 210.400,289.200 210.173,289.200 209.800 C 289.200 209.470,288.851 209.200,288.424 209.200 C 287.997 209.200,287.536 209.020,287.400 208.800 C 287.264 208.580,286.803 208.400,286.376 208.400 C 285.949 208.400,285.600 208.220,285.600 208.000 C 285.600 207.780,284.790 207.600,283.800 207.600 C 282.810 207.600,282.000 207.420,282.000 207.200 C 282.000 206.980,281.640 206.800,281.200 206.800 C 280.756 206.800,280.400 206.533,280.400 206.200 C 280.400 205.831,280.025 205.600,279.424 205.600 C 278.887 205.600,278.336 205.420,278.200 205.200 C 278.064 204.980,277.423 204.800,276.776 204.800 C 276.129 204.800,275.600 204.620,275.600 204.400 C 275.600 204.180,275.060 204.000,274.400 204.000 C 273.740 204.000,273.200 203.820,273.200 203.600 C 273.200 203.380,272.589 203.200,271.843 203.200 C 271.005 203.200,270.397 202.970,270.255 202.600 C 270.121 202.249,269.521 202.000,268.813 202.000 C 268.146 202.000,267.600 201.820,267.600 201.600 C 267.600 201.380,267.060 201.200,266.400 201.200 C 265.740 201.200,265.200 201.020,265.200 200.800 C 265.200 200.580,264.570 200.400,263.800 200.400 C 263.030 200.400,262.400 200.220,262.400 200.000 C 262.400 199.780,261.590 199.600,260.600 199.600 C 259.610 199.600,258.800 199.420,258.800 199.200 C 258.800 198.980,257.810 198.800,256.600 198.800 C 254.911 198.800,254.400 198.661,254.400 198.200 C 254.400 197.756,253.933 197.600,252.600 197.600 C 251.610 197.600,250.800 197.420,250.800 197.200 C 250.800 196.980,249.821 196.800,248.624 196.800 C 247.427 196.800,246.336 196.620,246.200 196.400 C 246.064 196.180,245.243 196.000,244.376 196.000 C 243.509 196.000,242.800 195.820,242.800 195.600 C 242.800 195.371,241.600 195.200,240.000 195.200 C 237.778 195.200,237.200 195.076,237.200 194.600 C 237.200 194.107,236.489 194.000,233.200 194.000 C 230.800 194.000,229.200 193.840,229.200 193.600 C 229.200 193.360,227.600 193.200,225.200 193.200 C 222.800 193.200,221.200 193.040,221.200 192.800 C 221.200 192.539,214.067 192.400,200.600 192.400 C 187.133 192.400,180.000 192.539,180.000 192.800 M209.600 278.000 C 209.600 278.237,211.067 278.400,213.200 278.400 C 215.333 278.400,216.800 278.563,216.800 278.800 C 216.800 279.026,217.933 279.200,219.400 279.200 C 220.867 279.200,222.000 279.374,222.000 279.600 C 222.000 279.820,222.971 280.000,224.157 280.000 C 225.706 280.000,226.379 280.169,226.545 280.600 C 226.697 280.996,227.323 281.200,228.387 281.200 C 229.274 281.200,230.000 281.380,230.000 281.600 C 230.000 281.820,230.630 282.000,231.400 282.000 C 232.170 282.000,232.800 282.180,232.800 282.400 C 232.800 282.620,233.430 282.800,234.200 282.800 C 234.970 282.800,235.600 282.980,235.600 283.200 C 235.600 283.420,236.121 283.600,236.757 283.600 C 237.417 283.600,238.013 283.858,238.145 284.200 C 238.279 284.551,238.879 284.800,239.587 284.800 C 240.254 284.800,240.800 284.980,240.800 285.200 C 240.800 285.420,241.250 285.600,241.800 285.600 C 242.350 285.600,242.800 285.780,242.800 286.000 C 242.800 286.220,243.160 286.400,243.600 286.400 C 244.040 286.400,244.400 286.580,244.400 286.800 C 244.400 287.020,244.850 287.200,245.400 287.200 C 245.950 287.200,246.400 287.380,246.400 287.600 C 246.400 287.820,246.760 288.000,247.200 288.000 C 247.644 288.000,248.000 288.267,248.000 288.600 C 248.000 289.019,248.422 289.200,249.400 289.200 C 250.170 289.200,250.800 289.380,250.800 289.600 C 250.800 289.820,251.160 290.000,251.600 290.000 C 252.040 290.000,252.400 290.180,252.400 290.400 C 252.400 290.620,252.670 290.800,253.000 290.800 C 253.330 290.800,253.600 290.980,253.600 291.200 C 253.600 291.420,253.960 291.600,254.400 291.600 C 254.844 291.600,255.200 291.867,255.200 292.200 C 255.200 292.573,255.578 292.800,256.200 292.800 C 256.750 292.800,257.200 292.980,257.200 293.200 C 257.200 293.420,257.520 293.600,257.912 293.600 C 258.303 293.600,258.883 293.960,259.200 294.400 C 259.517 294.840,259.969 295.200,260.205 295.200 C 260.441 295.200,261.301 295.830,262.118 296.600 C 262.934 297.370,263.884 298.000,264.229 298.000 C 264.947 298.000,266.000 298.934,266.000 299.571 C 266.000 299.807,266.339 300.000,266.753 300.000 C 267.170 300.000,267.600 300.357,267.716 300.800 C 267.831 301.240,268.225 301.600,268.591 301.600 C 269.245 301.600,270.400 302.494,270.400 303.000 C 270.400 303.326,271.463 304.400,271.785 304.400 C 271.918 304.400,272.657 305.030,273.427 305.800 C 274.197 306.570,275.009 307.200,275.232 307.200 C 275.851 307.200,277.600 309.087,277.600 309.755 C 277.600 310.080,277.990 310.470,278.466 310.621 C 279.599 310.981,281.200 312.597,281.200 313.382 C 281.200 313.722,281.380 314.000,281.600 314.000 C 281.820 314.000,282.000 314.270,282.000 314.600 C 282.000 314.930,282.186 315.200,282.413 315.200 C 283.155 315.200,285.600 317.952,285.600 318.787 C 285.600 319.234,285.788 319.600,286.018 319.600 C 286.710 319.600,288.400 321.511,288.400 322.294 C 288.400 322.695,288.760 323.283,289.200 323.600 C 289.640 323.917,290.000 324.503,290.000 324.901 C 290.000 325.299,290.270 325.729,290.600 325.855 C 290.930 325.982,291.200 326.387,291.200 326.754 C 291.200 327.122,291.560 327.683,292.000 328.000 C 292.440 328.317,292.800 328.910,292.800 329.317 C 292.800 330.128,293.694 331.200,294.371 331.200 C 294.607 331.200,294.804 331.695,294.809 332.300 C 294.814 332.905,295.170 333.850,295.600 334.400 C 296.030 334.950,296.386 335.625,296.391 335.900 C 296.396 336.175,296.580 336.400,296.800 336.400 C 297.020 336.400,297.200 336.850,297.200 337.400 C 297.200 338.022,297.427 338.400,297.800 338.400 C 298.133 338.400,298.400 338.756,298.400 339.200 C 298.400 339.640,298.580 340.000,298.800 340.000 C 299.020 340.000,299.200 340.630,299.200 341.400 C 299.200 342.170,299.380 342.800,299.600 342.800 C 299.820 342.800,300.000 343.430,300.000 344.200 C 300.000 344.970,300.180 345.600,300.400 345.600 C 300.620 345.600,300.800 345.960,300.800 346.400 C 300.800 346.844,301.067 347.200,301.400 347.200 C 301.819 347.200,302.000 347.622,302.000 348.600 C 302.000 349.370,302.180 350.000,302.400 350.000 C 302.620 350.000,302.800 350.630,302.800 351.400 C 302.800 352.170,302.980 352.800,303.200 352.800 C 303.420 352.800,303.600 353.790,303.600 355.000 C 303.600 356.210,303.780 357.200,304.000 357.200 C 304.220 357.200,304.400 358.190,304.400 359.400 C 304.400 361.089,304.539 361.600,305.000 361.600 C 305.461 361.600,305.600 362.111,305.600 363.800 C 305.600 365.010,305.780 366.000,306.000 366.000 C 306.245 366.000,306.400 367.933,306.400 371.000 C 306.400 374.067,306.555 376.000,306.800 376.000 C 307.045 376.000,307.200 377.933,307.200 381.000 C 307.200 384.067,307.045 386.000,306.800 386.000 C 306.555 386.000,306.400 387.933,306.400 391.000 C 306.400 394.067,306.245 396.000,306.000 396.000 C 305.780 396.000,305.600 396.990,305.600 398.200 C 305.600 399.889,305.461 400.400,305.000 400.400 C 304.539 400.400,304.400 400.911,304.400 402.600 C 304.400 403.810,304.220 404.800,304.000 404.800 C 303.780 404.800,303.600 405.790,303.600 407.000 C 303.600 408.210,303.420 409.200,303.200 409.200 C 302.980 409.200,302.800 409.830,302.800 410.600 C 302.800 411.370,302.620 412.000,302.400 412.000 C 302.180 412.000,302.000 412.630,302.000 413.400 C 302.000 414.378,301.819 414.800,301.400 414.800 C 301.067 414.800,300.800 415.156,300.800 415.600 C 300.800 416.040,300.620 416.400,300.400 416.400 C 300.180 416.400,300.000 417.030,300.000 417.800 C 300.000 418.570,299.820 419.200,299.600 419.200 C 299.380 419.200,299.200 419.830,299.200 420.600 C 299.200 421.370,299.020 422.000,298.800 422.000 C 298.580 422.000,298.400 422.360,298.400 422.800 C 298.400 423.244,298.133 423.600,297.800 423.600 C 297.467 423.600,297.200 423.956,297.200 424.400 C 297.200 424.840,297.020 425.200,296.800 425.200 C 296.580 425.200,296.400 425.470,296.400 425.800 C 296.400 426.130,296.220 426.400,296.000 426.400 C 295.780 426.400,295.600 426.839,295.600 427.376 C 295.600 427.913,295.420 428.464,295.200 428.600 C 294.980 428.736,294.800 429.287,294.800 429.824 C 294.800 430.361,294.607 430.800,294.371 430.800 C 293.694 430.800,292.800 431.872,292.800 432.683 C 292.800 433.090,292.440 433.683,292.000 434.000 C 291.560 434.317,291.200 434.878,291.200 435.246 C 291.200 435.613,290.930 436.018,290.600 436.145 C 290.270 436.271,290.000 436.701,290.000 437.099 C 290.000 437.497,289.640 438.083,289.200 438.400 C 288.760 438.717,288.400 439.305,288.400 439.706 C 288.400 440.489,286.710 442.400,286.018 442.400 C 285.788 442.400,285.600 442.766,285.600 443.213 C 285.600 444.048,283.155 446.800,282.413 446.800 C 282.186 446.800,282.000 447.070,282.000 447.400 C 282.000 447.730,281.820 448.000,281.600 448.000 C 281.380 448.000,281.200 448.278,281.200 448.618 C 281.200 449.314,279.460 451.200,278.818 451.200 C 278.588 451.200,278.400 451.386,278.400 451.613 C 278.400 452.151,275.751 454.800,275.213 454.800 C 274.986 454.800,274.800 454.993,274.800 455.229 C 274.800 455.866,273.747 456.800,273.029 456.800 C 272.683 456.800,272.400 456.950,272.400 457.132 C 272.400 457.315,271.950 457.706,271.400 458.000 C 270.850 458.294,270.400 458.693,270.400 458.886 C 270.400 459.481,268.652 461.021,267.293 461.623 C 266.582 461.938,266.000 462.344,266.000 462.526 C 266.000 463.053,264.910 464.000,264.304 464.000 C 264.000 464.000,263.364 464.360,262.892 464.800 C 262.420 465.240,261.799 465.600,261.513 465.600 C 261.227 465.600,260.454 466.226,259.796 466.991 C 259.138 467.757,258.285 468.387,257.900 468.391 C 257.515 468.396,257.200 468.580,257.200 468.800 C 257.200 469.020,256.750 469.200,256.200 469.200 C 255.578 469.200,255.200 469.427,255.200 469.800 C 255.200 470.133,254.844 470.400,254.400 470.400 C 253.960 470.400,253.600 470.580,253.600 470.800 C 253.600 471.020,253.274 471.200,252.875 471.200 C 252.477 471.200,251.764 471.560,251.292 472.000 C 250.820 472.440,250.066 472.800,249.617 472.800 C 249.157 472.800,248.800 473.063,248.800 473.400 C 248.800 473.733,248.444 474.000,248.000 474.000 C 247.560 474.000,247.200 474.180,247.200 474.400 C 247.200 474.620,246.570 474.800,245.800 474.800 C 245.030 474.800,244.400 474.980,244.400 475.200 C 244.400 475.420,244.040 475.600,243.600 475.600 C 243.160 475.600,242.800 475.780,242.800 476.000 C 242.800 476.220,242.350 476.400,241.800 476.400 C 241.250 476.400,240.800 476.580,240.800 476.800 C 240.800 477.020,240.254 477.200,239.587 477.200 C 238.879 477.200,238.279 477.449,238.145 477.800 C 238.018 478.130,237.574 478.400,237.157 478.400 C 236.741 478.400,236.400 478.580,236.400 478.800 C 236.400 479.020,235.590 479.200,234.600 479.200 C 233.610 479.200,232.800 479.380,232.800 479.600 C 232.800 479.820,231.990 480.000,231.000 480.000 C 230.010 480.000,229.200 480.180,229.200 480.400 C 229.200 480.620,228.654 480.800,227.987 480.800 C 227.279 480.800,226.679 481.049,226.545 481.400 C 226.388 481.807,225.750 482.000,224.557 482.000 C 223.591 482.000,222.800 482.180,222.800 482.400 C 222.800 482.620,221.810 482.800,220.600 482.800 C 219.390 482.800,218.400 482.980,218.400 483.200 C 218.400 483.444,216.533 483.600,213.600 483.600 C 210.543 483.600,208.800 483.751,208.800 484.016 C 208.800 484.715,184.152 483.899,183.420 483.175 C 183.211 482.969,182.086 482.800,180.920 482.800 C 179.754 482.800,178.800 482.620,178.800 482.400 C 178.800 482.180,177.810 482.000,176.600 482.000 C 174.911 482.000,174.400 481.861,174.400 481.400 C 174.400 480.981,173.978 480.800,173.000 480.800 C 172.230 480.800,171.600 480.620,171.600 480.400 C 171.600 480.180,171.060 480.000,170.400 480.000 C 169.740 480.000,169.200 479.820,169.200 479.600 C 169.200 479.380,168.390 479.200,167.400 479.200 C 166.410 479.200,165.600 479.020,165.600 478.800 C 165.600 478.580,164.970 478.400,164.200 478.400 C 163.222 478.400,162.800 478.219,162.800 477.800 C 162.800 477.427,162.422 477.200,161.800 477.200 C 161.250 477.200,160.800 477.020,160.800 476.800 C 160.800 476.580,160.440 476.400,160.000 476.400 C 159.560 476.400,159.200 476.220,159.200 476.000 C 159.200 475.780,158.570 475.600,157.800 475.600 C 157.030 475.600,156.400 475.420,156.400 475.200 C 156.400 474.980,156.040 474.800,155.600 474.800 C 155.160 474.800,154.800 474.620,154.800 474.400 C 154.800 474.180,154.350 474.000,153.800 474.000 C 153.178 474.000,152.800 473.773,152.800 473.400 C 152.800 473.067,152.444 472.800,152.000 472.800 C 151.560 472.800,151.200 472.620,151.200 472.400 C 151.200 472.180,150.750 472.000,150.200 472.000 C 149.650 472.000,149.200 471.820,149.200 471.600 C 149.200 471.380,148.840 471.200,148.400 471.200 C 147.960 471.200,147.600 471.020,147.600 470.800 C 147.600 470.580,147.150 470.400,146.600 470.400 C 146.050 470.400,145.600 470.207,145.600 469.971 C 145.600 469.334,144.547 468.400,143.829 468.400 C 143.483 468.400,143.200 468.220,143.200 468.000 C 143.200 467.780,142.930 467.600,142.600 467.600 C 142.270 467.600,142.000 467.420,142.000 467.200 C 142.000 466.980,141.640 466.800,141.200 466.800 C 140.756 466.800,140.400 466.533,140.400 466.200 C 140.400 465.867,140.044 465.600,139.600 465.600 C 139.161 465.600,138.059 464.880,137.152 464.000 C 136.245 463.120,135.351 462.400,135.165 462.400 C 134.979 462.400,134.197 461.770,133.427 461.000 C 132.657 460.230,131.841 459.600,131.613 459.600 C 131.386 459.600,131.200 459.330,131.200 459.000 C 131.200 458.667,130.844 458.400,130.400 458.400 C 129.867 458.400,129.600 458.133,129.600 457.600 C 129.600 457.067,129.333 456.800,128.800 456.800 C 128.360 456.800,128.000 456.620,128.000 456.400 C 128.000 456.180,127.730 456.000,127.400 456.000 C 127.070 456.000,126.800 455.814,126.800 455.587 C 126.800 455.049,124.151 452.400,123.613 452.400 C 123.386 452.400,123.200 452.202,123.200 451.960 C 123.200 451.719,122.660 451.017,122.000 450.400 C 121.340 449.783,120.800 448.991,120.800 448.640 C 120.800 448.288,120.530 448.000,120.200 448.000 C 119.870 448.000,119.600 447.814,119.600 447.587 C 119.600 447.049,116.951 444.400,116.413 444.400 C 116.186 444.400,116.000 443.990,116.000 443.488 C 116.000 442.987,115.640 442.317,115.200 442.000 C 114.760 441.683,114.400 441.090,114.400 440.683 C 114.400 439.970,113.530 438.800,113.000 438.800 C 112.443 438.800,111.600 437.613,111.600 436.829 C 111.600 436.373,111.420 436.000,111.200 436.000 C 110.980 436.000,110.800 435.717,110.800 435.371 C 110.800 434.653,109.866 433.600,109.229 433.600 C 108.993 433.600,108.800 433.150,108.800 432.600 C 108.800 432.050,108.620 431.600,108.400 431.600 C 108.180 431.600,108.000 431.240,108.000 430.800 C 108.000 430.360,107.820 430.000,107.600 430.000 C 107.380 430.000,107.200 429.550,107.200 429.000 C 107.200 428.450,107.020 428.000,106.800 428.000 C 106.580 428.000,106.400 427.640,106.400 427.200 C 106.400 426.756,106.133 426.400,105.800 426.400 C 105.470 426.400,105.200 426.130,105.200 425.800 C 105.200 425.470,105.020 425.200,104.800 425.200 C 104.580 425.200,104.400 424.660,104.400 424.000 C 104.400 423.340,104.220 422.800,104.000 422.800 C 103.780 422.800,103.600 422.350,103.600 421.800 C 103.600 421.250,103.420 420.800,103.200 420.800 C 102.980 420.800,102.800 420.260,102.800 419.600 C 102.800 418.800,102.600 418.400,102.200 418.400 C 101.827 418.400,101.600 418.022,101.600 417.400 C 101.600 416.850,101.420 416.400,101.200 416.400 C 100.980 416.400,100.800 415.871,100.800 415.224 C 100.800 414.577,100.620 413.936,100.400 413.800 C 100.180 413.664,100.000 413.124,100.000 412.600 C 100.000 412.076,99.820 411.536,99.600 411.400 C 99.380 411.264,99.200 410.533,99.200 409.776 C 99.200 409.019,99.020 408.400,98.800 408.400 C 98.580 408.400,98.400 407.410,98.400 406.200 C 98.400 404.511,98.261 404.000,97.800 404.000 C 97.339 404.000,97.200 403.489,97.200 401.800 C 97.200 400.590,97.020 399.600,96.800 399.600 C 96.578 399.600,96.400 398.533,96.400 397.200 C 96.400 395.867,96.222 394.800,96.000 394.800 C 95.741 394.800,95.600 389.933,95.600 381.000 C 95.600 372.067,95.741 367.200,96.000 367.200 C 96.222 367.200,96.400 366.133,96.400 364.800 C 96.400 363.467,96.578 362.400,96.800 362.400 C 97.020 362.400,97.200 361.410,97.200 360.200 C 97.200 358.511,97.339 358.000,97.800 358.000 C 98.261 358.000,98.400 357.489,98.400 355.800 C 98.400 354.590,98.580 353.600,98.800 353.600 C 99.020 353.600,99.200 352.970,99.200 352.200 C 99.200 351.430,99.380 350.800,99.600 350.800 C 99.820 350.800,100.000 350.170,100.000 349.400 C 100.000 348.630,100.180 348.000,100.400 348.000 C 100.620 348.000,100.800 347.460,100.800 346.800 C 100.800 346.140,100.980 345.600,101.200 345.600 C 101.420 345.600,101.600 345.150,101.600 344.600 C 101.600 343.978,101.827 343.600,102.200 343.600 C 102.600 343.600,102.800 343.200,102.800 342.400 C 102.800 341.740,102.980 341.200,103.200 341.200 C 103.420 341.200,103.600 340.750,103.600 340.200 C 103.600 339.650,103.780 339.200,104.000 339.200 C 104.220 339.200,104.400 338.647,104.400 337.971 C 104.400 336.746,105.159 335.600,105.971 335.600 C 106.207 335.600,106.400 335.240,106.400 334.800 C 106.400 334.360,106.580 334.000,106.800 334.000 C 107.020 334.000,107.200 333.550,107.200 333.000 C 107.200 332.450,107.380 332.000,107.600 332.000 C 107.820 332.000,108.000 331.640,108.000 331.200 C 108.000 330.760,108.180 330.400,108.400 330.400 C 108.620 330.400,108.800 329.950,108.800 329.400 C 108.800 328.850,108.993 328.400,109.229 328.400 C 109.866 328.400,110.800 327.347,110.800 326.629 C 110.800 326.283,110.980 326.000,111.200 326.000 C 111.420 326.000,111.600 325.627,111.600 325.171 C 111.600 324.370,112.447 323.200,113.027 323.200 C 113.472 323.200,114.373 321.867,114.387 321.188 C 114.394 320.852,114.760 320.317,115.200 320.000 C 115.640 319.683,116.000 319.013,116.000 318.512 C 116.000 318.010,116.186 317.600,116.413 317.600 C 116.951 317.600,119.600 314.951,119.600 314.413 C 119.600 314.186,119.870 314.000,120.200 314.000 C 120.530 314.000,120.800 313.712,120.800 313.360 C 120.800 313.009,121.340 312.217,122.000 311.600 C 122.660 310.983,123.200 310.281,123.200 310.040 C 123.200 309.798,123.386 309.600,123.613 309.600 C 124.151 309.600,126.800 306.951,126.800 306.413 C 126.800 306.186,127.173 306.000,127.629 306.000 C 128.611 306.000,129.600 305.111,129.600 304.229 C 129.600 303.883,129.876 303.600,130.213 303.600 C 130.549 303.600,130.929 303.330,131.055 303.000 C 131.182 302.670,131.464 302.400,131.682 302.400 C 131.901 302.400,132.583 301.860,133.200 301.200 C 133.817 300.540,134.584 300.000,134.904 300.000 C 135.225 300.000,135.826 299.550,136.239 299.000 C 136.652 298.450,137.307 298.000,137.695 298.000 C 138.083 298.000,138.400 297.820,138.400 297.600 C 138.400 297.380,138.593 297.200,138.829 297.200 C 139.382 297.200,140.400 296.182,140.400 295.629 C 140.400 295.393,140.760 295.200,141.200 295.200 C 141.640 295.200,142.000 295.020,142.000 294.800 C 142.000 294.580,142.270 294.400,142.600 294.400 C 142.930 294.400,143.200 294.220,143.200 294.000 C 143.200 293.780,143.560 293.600,144.000 293.600 C 144.440 293.600,144.800 293.420,144.800 293.200 C 144.800 292.980,145.250 292.800,145.800 292.800 C 146.350 292.800,146.800 292.607,146.800 292.371 C 146.800 291.734,147.853 290.800,148.571 290.800 C 148.917 290.800,149.200 290.620,149.200 290.400 C 149.200 290.180,149.650 290.000,150.200 290.000 C 150.750 290.000,151.200 289.820,151.200 289.600 C 151.200 289.380,151.560 289.200,152.000 289.200 C 152.444 289.200,152.800 288.933,152.800 288.600 C 152.800 288.227,153.178 288.000,153.800 288.000 C 154.350 288.000,154.800 287.820,154.800 287.600 C 154.800 287.380,155.160 287.200,155.600 287.200 C 156.040 287.200,156.400 287.020,156.400 286.800 C 156.400 286.580,157.030 286.400,157.800 286.400 C 158.570 286.400,159.200 286.220,159.200 286.000 C 159.200 285.780,159.560 285.600,160.000 285.600 C 160.440 285.600,160.800 285.420,160.800 285.200 C 160.800 284.980,161.430 284.800,162.200 284.800 C 163.178 284.800,163.600 284.619,163.600 284.200 C 163.600 283.781,164.022 283.600,165.000 283.600 C 165.770 283.600,166.400 283.420,166.400 283.200 C 166.400 282.980,167.030 282.800,167.800 282.800 C 168.570 282.800,169.200 282.620,169.200 282.400 C 169.200 282.180,169.740 282.000,170.400 282.000 C 171.060 282.000,171.600 281.820,171.600 281.600 C 171.600 281.380,172.230 281.200,173.000 281.200 C 173.978 281.200,174.400 281.019,174.400 280.600 C 174.400 280.124,174.978 280.000,177.200 280.000 C 178.800 280.000,180.000 279.829,180.000 279.600 C 180.000 279.374,181.133 279.200,182.600 279.200 C 184.067 279.200,185.200 279.026,185.200 278.800 C 185.200 278.563,186.667 278.400,188.800 278.400 C 190.933 278.400,192.400 278.237,192.400 278.000 C 192.400 277.746,195.533 277.600,201.000 277.600 C 206.467 277.600,209.600 277.746,209.600 278.000 " stroke="none" fill="#040404" fill-rule="evenodd"></path></g></svg>